<?xml version="1.0" encoding="UTF-8"?>
<svg id="Capa_3" data-name="Capa 3" xmlns="http://www.w3.org/2000/svg" viewBox="0 0 1038.5 314.5">
  <defs>
    <style>
      .cls-1 {
        fill: #fff;
        font-size: 14px;
      }

      .cls-1, .cls-2 {
        font-family: Bahnschrift-Light, Bahnschrift;
        font-variation-settings: 'wght' 300, 'wdth' 100;
        font-weight: 300;
      }

      .cls-3 {
        font-family: Bahnschrift, Bahnschrift;
        font-size: 19px;
        font-variation-settings: 'wght' 400, 'wdth' 100;
      }

      .cls-3, .cls-4, .cls-2 {
        fill: #301b82;
      }

      .cls-5 {
        fill: #bedded;
      }

      .cls-5, .cls-4 {
        stroke-width: 0px;
      }

      .cls-6 {
        letter-spacing: -.02em;
      }

      .cls-7 {
        letter-spacing: .01em;
      }

      .cls-8 {
        letter-spacing: 0em;
      }

      .cls-9 {
        letter-spacing: 0em;
      }

      .cls-10 {
        letter-spacing: 0em;
      }

      .cls-11 {
        letter-spacing: 0em;
      }

      .cls-2 {
        font-size: 17px;
      }

      .cls-12 {
        letter-spacing: -.01em;
      }
    </style>
  </defs>
  <rect class="cls-5" x="78.89" y="82.91" width="832" height="208.28" rx="24.42" ry="24.42"/>
  <rect class="cls-4" x="634.89" y="145.91" width="229" height="44.28"/>
  <rect class="cls-4" x="383.89" y="145.91" width="238" height="44.28"/>
  <text class="cls-3" transform="translate(94.81 26.68)"><tspan x="0" y="0">Asignaturas impartidas</tspan></text>
  <text class="cls-2" transform="translate(94.13 47.26)"><tspan x="0" y="0">Durante los ciclos de </tspan><tspan class="cls-8" x="158.17" y="0">l</tspan><tspan x="163.01" y="0">a car</tspan><tspan class="cls-11" x="199.73" y="0">r</tspan><tspan x="206.82" y="0">era</tspan></text>
  <text class="cls-3" transform="translate(203.44 235.92)"><tspan x="0" y="0">Ciclo básico</tspan><tspan x="30.88" y="24">I a IV</tspan></text>
  <text class="cls-3" transform="translate(423.11 235.7)"><tspan x="0" y="0">Ciclo especializado</tspan><tspan x="52.88" y="24">V a VIII</tspan></text>
  <text class="cls-3" transform="translate(700.82 235.7)"><tspan x="0" y="0">Ciclo p</tspan><tspan class="cls-11" x="55.42" y="0">r</tspan><tspan x="63.34" y="0">o</tspan><tspan class="cls-12" x="73.7" y="0">f</tspan><tspan x="79.44" y="0">esional</tspan><tspan x="48.72" y="24">IX a X</tspan></text>
  <polygon class="cls-4" points="137.89 196.19 137.89 207.03 249.89 207.03 249.89 215.95 259.43 215.95 259.43 206.07 496.43 206.07 496.43 215.95 505.34 215.95 505.34 206.07 763.89 206.07 763.89 215.95 773.89 215.95 773.89 206.07 863.89 206.07 863.89 196.19 137.89 196.19"/>
  <text class="cls-2" transform="translate(122.61 259.74) rotate(-90)"><tspan x="0" y="0">Semest</tspan><tspan class="cls-10" x="57.62" y="0">r</tspan><tspan class="cls-9" x="64.7" y="0">es</tspan></text>
  <text class="cls-1" transform="translate(395.13 172.97)"><tspan x="0" y="0">Seminario de Licenciatura I y II</tspan></text>
  <text class="cls-1" transform="translate(644.93 173.04)"><tspan class="cls-6" x="0" y="0">P</tspan><tspan class="cls-11" x="8.37" y="0">roy</tspan><tspan x="28.33" y="0">ecto de título I y II</tspan></text>
  <rect class="cls-4" x="159.89" y="146.19" width="187" height="44"/>
  <text class="cls-1" transform="translate(166.37 173.14)"><tspan x="0" y="0">Con</tspan><tspan class="cls-7" x="24.11" y="0">f</tspan><tspan x="28.75" y="0">iguración Visual I</tspan></text>
</svg>